<svg width="34" height="35" viewBox="0 0 34 35" fill="none" xmlns="http://www.w3.org/2000/svg">
<path fill-rule="evenodd" clip-rule="evenodd" d="M25.9233 13.6201L27.0718 13.7543L26.3339 11.6646L26.6266 10.819L26.4599 10.7336L25.3724 11.317L25.9233 13.6201ZM21.7136 10.6706C21.4899 11.0548 21.2643 11.3475 21.1464 11.6768C21.0793 11.8679 21.1261 12.1545 21.2298 12.3354C21.2989 12.4594 21.555 12.5244 21.7298 12.5305C22.2461 12.5489 22.797 12.4106 23.2747 12.5448C23.852 12.7053 24.1467 12.6342 24.2626 11.9858L21.7136 10.6706ZM19.3048 6.67023C18.5039 6.80844 18.3677 7.09708 18.4713 7.67844C18.5242 7.97522 18.3474 8.42243 18.1197 8.63382C17.8554 8.88181 17.5261 8.71716 17.2639 8.40207C17.1216 8.23132 16.7903 8.21304 16.5383 8.14798C16.3492 8.0972 16.0199 8.13174 15.9833 8.03821C15.9121 7.85529 15.9163 7.49954 16.0362 7.40808C16.5789 6.99136 17.1318 6.50149 17.7619 6.30636C18.4043 6.10919 19.1422 6.20471 19.8373 6.20672C21.1281 6.21285 22.421 6.286 23.7097 6.23928C24.037 6.22707 24.3521 5.86928 24.6732 5.6701C24.472 5.37536 24.3399 4.94851 24.0593 4.80419C20.6667 3.04992 17.0973 2.58242 13.3611 3.42394C11.7309 3.78982 10.4319 4.8062 9.01108 5.58269C8.633 5.79003 8.2732 6.02989 7.88495 6.26772C8.67365 7.04827 8.67566 7.53002 8.10245 8.30043C7.63288 8.9326 7.25482 9.6339 6.82996 10.2986C6.7649 10.4002 6.6633 10.4795 6.56571 10.5832C6.45188 10.4836 6.32178 10.4185 6.27302 10.3149C6.11851 9.99572 6.01893 9.64815 5.85426 9.3351C5.75264 9.14198 5.59816 8.9326 5.41316 8.84926C5.33388 8.8127 5.10216 9.0627 4.96596 9.20906C4.26467 9.96321 3.9984 10.8048 4.45577 11.7926C4.52489 11.9431 4.55333 12.1179 4.57772 12.2825C4.72613 13.2278 4.64074 14.0917 3.71383 14.6425C2.85601 15.1527 2.35796 15.9374 2.2279 16.8907C2.02261 18.3787 2.19946 19.8443 2.73406 21.255C2.78893 21.3993 2.93325 21.5172 3.0552 21.625C3.61828 22.125 4.29516 22.5397 4.72814 23.1332C5.44771 24.1232 6.20998 25.0034 7.30361 25.6009C7.83819 25.8916 8.02117 26.4201 7.75484 27.0239C7.5699 27.4426 7.36663 27.8532 7.14913 28.3207C8.39516 29.4346 9.6636 30.5628 11.2024 31.2946C13.5075 32.3923 15.9488 32.7623 18.4897 32.4715C23.4739 31.8983 27.208 29.5018 29.5029 24.9729C30.564 22.8791 31.0072 20.5903 31.6475 18.3624C31.6882 18.2181 31.6516 18.0514 31.6516 17.7587C31.4077 17.9254 31.2287 17.9863 31.1536 18.1084C30.8446 18.6226 30.5681 19.1572 30.2713 19.6816C30.1839 19.8321 30.0681 19.9683 29.9644 20.1106C29.8424 19.9845 29.6676 19.8809 29.6066 19.7304C29.4176 19.2629 29.2855 18.771 29.1086 18.2974C28.8139 17.5127 28.2224 17.0269 27.454 16.7444C26.712 16.47 25.9619 16.2118 25.2139 15.9476C24.9903 16.5756 25.3826 17.1347 26.1286 17.0757C26.6063 17.0391 26.8604 17.2587 26.7222 17.7018C26.6247 18.0128 26.397 18.3827 26.1246 18.5169C25.6448 18.7547 25.0919 18.8645 24.5594 18.9682C24.041 19.0658 23.6873 18.832 23.4536 18.336C23.1365 17.6632 22.7584 17.0208 22.4067 16.3663C22.4677 17.6001 23.0592 18.5942 23.6751 19.58C23.9678 20.0475 24.2647 20.4846 24.9334 20.1573C25.0188 20.1146 25.1651 20.1898 25.4843 20.2468C25.0493 20.9684 24.7179 21.6412 24.2707 22.2266C23.7036 22.9686 23.0653 23.6374 23.1039 24.676C23.1162 24.9708 23.0166 25.357 22.8214 25.5582C21.9839 26.4222 21.118 27.2637 20.2134 28.0544C19.4979 28.6785 18.4084 28.3919 17.9612 27.5483C17.4123 26.5116 17.268 25.416 17.2822 24.2492C17.3006 22.8852 16.0829 21.7225 14.7373 21.625C14.1701 21.5823 13.603 21.4949 13.044 21.381C12.7879 21.3282 12.5074 21.2164 12.3142 21.0436C10.993 19.8565 10.9686 16.9883 12.2431 15.7606C13.3327 14.7117 14.5645 14.0246 16.1439 14.0897C16.6541 14.1099 17.0525 14.1181 17.3229 14.671C17.5912 15.2198 18.5771 15.7036 18.9003 15.48C19.5467 15.0308 20.187 15.2036 20.8496 15.3398C21.0956 15.3906 21.3802 15.4983 21.5916 15.4251C21.8355 15.3398 22.0835 15.1141 22.1993 14.8865C22.2543 14.7747 22.0591 14.4332 21.8945 14.3356C21.2847 13.9799 20.6423 13.6811 19.937 13.3233L19.4491 13.9331C18.819 13.1769 18.8414 11.9085 17.4469 11.9492L18.508 13.2522C17.8087 13.6729 17.6136 13.1139 17.3392 12.7948C16.7598 12.1199 16.3797 12.0305 15.6683 12.5549C15.2129 12.8923 14.8084 13.3009 14.4039 13.7014C14.034 14.0693 13.6681 14.1282 13.2127 13.8538C12.8672 13.6445 12.7513 13.3761 12.857 13.0021C12.983 12.5488 13.168 12.1769 13.7575 12.2297C13.9648 12.248 14.1844 12.1402 14.4486 12.0793C14.3023 11.8028 14.1986 11.5995 14.0868 11.3983C13.8835 11.0263 13.9587 10.7417 14.3673 10.5933C15.3349 10.2376 16.1256 9.64815 16.7456 8.82488C17.7152 9.54244 18.3779 9.50789 19.2052 8.65822C19.5162 8.33702 19.9024 8.09105 20.2988 7.77599C19.813 7.54021 19.1015 7.92235 18.9511 7.13771L19.3048 6.67023ZM33.8754 17.5819C33.8754 26.9751 26.3136 34.36 16.6968 34.3579C7.55562 34.3559 0.01219 26.7739 1e-05 17.5961C-0.01018 8.69278 7.15721 0.834259 16.9671 0.852569C26.8543 0.870849 33.9221 8.81879 33.8753 17.5819H33.8754Z" fill="#F1F1F1"/>
</svg>
