<svg width="25" height="23" viewBox="0 0 25 23" fill="none" xmlns="http://www.w3.org/2000/svg">
<path fill-rule="evenodd" clip-rule="evenodd" d="M16.6607 3.96563C16.6607 1.77547 18.4499 -9.99451e-06 20.6569 -9.99451e-06C22.864 -9.99451e-06 24.6532 1.77546 24.6532 3.96563C24.6532 6.15579 22.864 7.93127 20.6569 7.93127C18.4499 7.93127 16.6607 6.1558 16.6607 3.96563Z" fill="white"/>
<path fill-rule="evenodd" clip-rule="evenodd" d="M16.6607 18.774C16.6607 16.5811 18.4499 14.8034 20.6569 14.8034C22.864 14.8034 24.6532 16.5811 24.6532 18.774C24.6532 20.9669 22.864 22.7446 20.6569 22.7446C18.4499 22.7446 16.6607 20.9669 16.6607 18.774Z" fill="white"/>
<path fill-rule="evenodd" clip-rule="evenodd" d="M-0.000120019 3.96563C-0.000120019 1.77547 1.78908 -9.99451e-06 3.99616 -9.99451e-06C6.20324 -9.99451e-06 7.99244 1.77546 7.99244 3.96563C7.99244 6.15579 6.20324 7.93127 3.99616 7.93127C1.78908 7.93127 -0.000120019 6.1558 -0.000120019 3.96563Z" fill="white"/>
<path fill-rule="evenodd" clip-rule="evenodd" d="M-0.000120019 18.774C-0.000120019 16.5811 1.78908 14.8034 3.99616 14.8034C6.20324 14.8034 7.99244 16.5811 7.99244 18.774C7.99244 20.9669 6.20324 22.7446 3.99616 22.7446C1.78908 22.7446 -0.000120019 20.9669 -0.000120019 18.774Z" fill="white"/>
</svg>
