<?xml version="1.0" encoding="utf-8"?>
<svg viewBox="1.899 -9.68 280.072 48.806" xmlns="http://www.w3.org/2000/svg">
  <g fill="#0d8ad5" style="" transform="matrix(1, 0, 0, 1, 1.899081, -9.685061)">
    <path d="M26.386 40.8h-.508l4.48-21.053h6.396l2.121 12.38 2.635-12.379h4.79L41.82 40.8H35.56l-2.101-13.106L30.67 40.8h-4.285M50.873 29.788c-.36.654-.636 1.741-.943 3.203-.373 1.746-.562 2.93-.561 3.665-.001.543.105.802.203.898.09.105.27.178.66.178.646-.027.9-.12 1.313-.79.39-.684.767-1.977 1.22-4.12.262-1.228.439-2.195.436-2.848-.08-.916-.116-1.011-.91-1.082-.714.019-1.041.246-1.418.896zm-1.178 11.29c-1.836 0-3.117-.389-3.949-1.182-.827-.793-1.11-1.918-1.11-3.187 0-1.097.203-2.326.49-3.664.775-3.87 2.254-7.532 7.702-7.497 1.878-.002 3.17.417 3.992 1.217.824.802 1.093 1.92 1.09 3.124 0 1.032-.19 2.16-.439 3.328-.88 4.402-2.429 7.861-7.689 7.861h-.087M64.816 25.827h.51l-.185.86c1.012-.855 2.23-1.15 3.46-1.14h.506l-.93 4.377-.354-.023a5.824 5.824 0 00-.484-.018c-2.735.041-2.962 1.544-3.295 2.885l-1.71 8.032h-4.792l3.185-14.973h4.089M73.81 29.902c-.357.773-.61 1.956-.908 3.37-.33 1.542-.521 2.689-.52 3.437.074.996.14 1.054.728 1.109.495-.01.789-.206 1.185-.958.37-.746.706-1.99 1.082-3.76.29-1.369.535-2.53.532-3.291-.07-.844-.105-.949-.708-1.002-.674.016-1.011.317-1.39 1.095zm.63 10.898h-.507l.15-.715c-.88.703-1.9.995-3.033.995h-.057c-1.253.005-2.167-.42-2.703-1.14-.534-.714-.693-1.63-.696-2.584 0-1.429.365-2.989.63-4.229.307-1.423.662-3.27 1.48-4.807.804-1.532 2.177-2.784 4.333-2.772 1.135-.023 2.078.285 2.727 1.03l1.45-6.83h4.794L78.532 40.8H74.44M99.856 29.788c-.36.654-.634 1.741-.944 3.203-.38 1.75-.57 2.931-.563 3.665-.007.543.102.802.201.898.089.105.27.178.667.178.642-.027.898-.12 1.306-.79.392-.684.77-1.977 1.222-4.12.263-1.228.438-2.195.435-2.848-.078-.916-.117-1.011-.909-1.082-.718.019-1.036.246-1.415.896zm-1.184 11.29c-1.833 0-3.114-.389-3.945-1.182-.828-.793-1.113-1.917-1.113-3.187 0-1.096.207-2.326.49-3.664.78-3.87 2.253-7.532 7.703-7.499 1.884 0 3.17.42 3.997 1.219.821.802 1.091 1.92 1.09 3.125 0 1.034-.193 2.16-.439 3.327-.885 4.402-2.431 7.861-7.697 7.861h-.086M113.188 40.8l2.182-10.25c.078-.374.13-.713.13-.983-.072-.609-.045-.695-.734-.756-.974.005-1.26.653-1.56 1.912L111.06 40.8h-4.788l3.185-14.973h4.788l-.142.675c.293-.219.596-.395.901-.526.682-.31 1.414-.428 2.188-.428 1.777.004 3.351 1.004 3.354 2.828 0 .24-.027.49-.081.753l-2.483 11.67h-4.793" style="stroke: rgb(255, 255, 255); fill: rgb(255, 255, 255); stroke-width: 0px;"/>
    <path d="M87.047 1.25A145.432 145.432 0 0067.99.005C30.44.005 0 13.843 0 30.912c0 3.458 1.27 6.782 3.578 9.888h12.388c-2.328-3.097-3.603-6.422-3.603-9.888 0-16.387 28.226-29.67 63.046-29.67 3.94 0 7.79.18 11.532.505l.106-.497M92.448 26.343c-.859-.56-1.973-.792-3.169-.795-2.612-.005-6.086.948-6.825 4.305a4.105 4.105 0 00-.1.883c.011 2.01 1.65 2.933 3.044 3.602 1.449.674 2.626 1.25 2.592 2.039.008.04.004.08.004.126 0 .618-.613 1.12-1.366 1.12-.743 0-1.36-.502-1.36-1.12V36.5s-.021-.548.218-1.062h-4.2l-.082.304c-.2.722-.293 1.36-.293 1.924-.017 1.316.576 2.272 1.537 2.77.955.502 2.198.64 3.649.643h.016c3.416 0 6.027-1.954 6.598-4.641.07-.32.1-.623.1-.914-.007-2.05-1.63-3.09-3.048-3.809-.795-.38-1.507-.738-1.99-1.06-.366-.202-.684-.551-.684-.965 0-.617.607-1.117 1.364-1.117.114 0 .284.024.482.076.492.155.836.535.86.988 0 0 .02.506-.196 1.079h3.973l.085-.304c.138-.498.208-.963.208-1.393.008-1.195-.558-2.12-1.417-2.675" style="paint-order: fill; stroke: rgb(255, 255, 255); fill: rgb(255, 255, 255); stroke-width: 0px;"/>
  </g>
</svg>