<svg width="38" height="39" viewBox="0 0 38 39" fill="none" xmlns="http://www.w3.org/2000/svg">
<path fill-rule="evenodd" clip-rule="evenodd" d="M4.31341 15.8929C3.71176 15.8929 3.22592 15.407 3.22592 14.8053C3.22592 14.2057 3.71176 13.7199 4.31341 13.7199H18.2538C18.8535 13.7199 19.3393 14.2057 19.3393 14.8053C19.3393 15.407 18.8535 15.8929 18.2538 15.8929H4.31341ZM4.31341 9.37179H22.862C23.4637 9.37179 23.9495 9.85762 23.9495 10.4593C23.9495 11.059 23.4637 11.5448 22.862 11.5448H4.31341C3.71176 11.5448 3.22592 11.059 3.22592 10.4593C3.22592 9.85763 3.71176 9.37179 4.31341 9.37179ZM4.31341 5.02373H22.862C23.4637 5.02373 23.9495 5.50955 23.9495 6.11124C23.9495 6.71091 23.4637 7.19674 22.862 7.19674H4.31341C3.71176 7.19674 3.22592 6.71091 3.22592 6.11124C3.22592 5.50955 3.71176 5.02373 4.31341 5.02373ZM24.8785 0.254883H2.29697C1.02854 0.254883 0 1.28344 0 2.55188V33.4213C0 34.6898 1.02853 35.7183 2.29697 35.7183H4.07355H16.8289L16.8716 31.9395C16.8878 30.4393 17.4224 28.992 18.3839 27.8394L27.1755 17.3077V7.20487V4.31836V2.55188C27.1755 1.28344 26.1469 0.254883 24.8785 0.254883H24.8785Z" fill="#F1F1F1"/>
<path fill-rule="evenodd" clip-rule="evenodd" d="M24.481 38.3007C23.0557 38.4187 21.6427 37.949 20.5021 36.9752C18.3978 35.178 18.0725 32.1061 19.7499 29.8271C20.7603 28.4528 21.8867 27.1212 22.9765 25.8363C23.2042 25.5639 23.4339 25.2935 23.6616 25.0231C24.0723 24.5352 24.481 24.0452 24.8917 23.5552C26.3291 21.8333 27.8154 20.0523 29.3605 18.3812C30.0905 17.5944 31.0542 17.1126 32.0768 17.0272C33.8355 16.8788 35.4214 17.8485 36.1168 19.4973C36.6596 20.7802 36.5274 22.0468 35.7141 23.3662C35.5373 23.6549 35.3218 23.9497 35.0717 24.2465C32.8373 26.8935 30.5988 29.5405 28.3603 32.1854L26.8049 34.0253C26.0892 34.8731 25.4285 35.2776 24.664 35.3427C24.4831 35.3569 24.294 35.3529 24.1008 35.3285C23.0334 35.1963 22.1591 34.562 21.7647 33.6309C21.3784 32.7221 21.5228 31.6812 22.149 30.8456C22.698 30.1158 23.3058 29.4063 23.8934 28.7191C24.1069 28.4711 24.3184 28.2231 24.5298 27.971C26.3474 25.8139 28.1691 23.6609 29.9909 21.508L30.2328 21.2213C30.3507 21.081 30.4727 20.9489 30.5927 20.8188L30.6008 20.8086L32.0037 21.9247L31.9834 21.9491C31.8756 22.0894 31.7658 22.2276 31.6519 22.3638L29.0434 25.4479C27.3986 27.3936 25.7517 29.3391 24.109 31.2868C24.0744 31.3295 24.0358 31.3701 23.9971 31.4128C23.8223 31.6121 23.6231 31.8378 23.562 32.1081C23.497 32.3887 23.4543 32.9864 23.745 33.2487C23.8751 33.3666 24.0764 33.4113 24.3611 33.3869C24.5115 33.3747 24.6843 33.3442 24.8775 33.2934C25.1093 33.2344 25.276 33.0332 25.4203 32.8563L25.4813 32.7831L25.8615 32.3358C28.4355 29.2985 31.0989 26.1595 33.7054 23.0612C34.2381 22.4269 34.7586 21.6421 34.5776 20.6399C34.3743 19.5319 33.4004 18.7634 32.3087 18.8549C32.0098 18.8813 31.719 18.9667 31.4446 19.1151C31.0054 19.3489 30.5744 19.6986 30.2308 20.1011C27.6425 23.1364 24.5847 26.7328 21.5248 30.3963C20.2907 31.8764 20.189 33.7407 21.2626 35.1475C21.9518 36.0481 23.068 36.5279 24.2513 36.4303C25.2089 36.349 26.1055 35.9018 26.7765 35.1699C27.6975 34.1676 28.5839 33.1043 29.4399 32.0777C29.7225 31.7402 30.0031 31.4007 30.2856 31.0652C31.6641 29.4286 33.0406 27.788 34.415 26.1453L36.0151 24.2363L37.4871 25.5191C36.5701 26.5783 35.641 27.6579 34.7423 28.7049C32.4855 31.3336 30.1535 34.0497 27.7788 36.658C26.8984 37.6258 25.7578 38.193 24.481 38.3007L24.481 38.3007Z" fill="#F1F1F1"/>
</svg>
